<?xml version="1.0" encoding="UTF-8"?><svg xmlns="http://www.w3.org/2000/svg" xmlns:xlink="http://www.w3.org/1999/xlink" fill="none" height="30.0" preserveAspectRatio="xMidYMid meet" style="fill: none;" version="1.0" viewBox="1.0 1.0 30.0 30.0" width="30.0" zoomAndPan="magnify"><g id="change1_1"><path d="M1.35579 8.33149C1.63913 4.59055 4.59055 1.63913 8.33149 1.35579C10.8563 1.16456 13.6979 1 16 1C18.3021 1 21.1437 1.16456 23.6685 1.35579C27.4095 1.63913 30.3609 4.59055 30.6442 8.33149C30.8354 10.8563 31 13.6979 31 16C31 18.3021 30.8354 21.1437 30.6442 23.6685C30.3609 27.4095 27.4095 30.3609 23.6685 30.6442C21.1437 30.8354 18.3021 31 16 31C13.6979 31 10.8563 30.8354 8.33149 30.6442C4.59055 30.3609 1.63913 27.4095 1.35579 23.6685C1.16456 21.1437 1 18.3021 1 16C1 13.6979 1.16456 10.8563 1.35579 8.33149Z" fill="#000"/></g><g id="change2_1"><path clip-rule="evenodd" d="M9 8.55814C9 8.24989 9.24989 8 9.55814 8H11.7907C12.0989 8 12.3488 8.24989 12.3488 8.55814V23.4419C12.3488 23.7501 12.0989 24 11.7907 24H9.55814C9.24989 24 9 23.7501 9 23.4419V13.3953C9 13.0871 9.24989 12.8372 9.55814 12.8372C9.86639 12.8372 10.1163 13.0871 10.1163 13.3953V22.8837H11.2326V9.11628H10.1163V10.4186C10.1163 10.7269 9.86639 10.9767 9.55814 10.9767C9.24989 10.9767 9 10.7269 9 10.4186V8.55814Z" fill="#fff" fill-rule="evenodd"/></g><g id="change2_2"><path clip-rule="evenodd" d="M13.0928 9.30233C13.0928 8.99407 13.3427 8.74419 13.6509 8.74419H22.9532C23.1678 8.74419 23.3633 8.86717 23.4563 9.06055C23.5492 9.25392 23.5231 9.48346 23.3891 9.65099L20.6913 13.0233L23.3891 16.3955C23.5231 16.5631 23.5492 16.7926 23.4563 16.986C23.3633 17.1793 23.1678 17.3023 22.9532 17.3023H13.6509C13.3427 17.3023 13.0928 17.0524 13.0928 16.7442V9.30233ZM14.2091 9.86047V16.186H21.792L19.5407 13.3719C19.3776 13.1681 19.3776 12.8784 19.5407 12.6746L21.792 9.86047H14.2091Z" fill="#fff" fill-rule="evenodd"/></g></svg>