<?xml version="1.0" encoding="UTF-8"?><svg xmlns="http://www.w3.org/2000/svg" xmlns:xlink="http://www.w3.org/1999/xlink" height="419.0" preserveAspectRatio="xMidYMid meet" version="1.0" viewBox="10.0 32.5 479.7 419.0" width="479.7" zoomAndPan="magnify"><g><g id="change1_2"><path d="m351.64 138.48h70.454a10.342 10.406 0 0 1 10.342 10.406v28.739a10.342 10.406 0 0 1 -10.342 10.406h-70.454a10.342 10.406 0 0 1 -10.342 -10.406v-28.739a10.342 10.406 0 0 1 10.342 -10.406" fill="inherit" fill-rule="evenodd" transform="matrix(0 1 1 0 -122.4 -250.42)"/></g><g id="change1_3"><path d="m149.09 421.35h451.81a8.9629 8.9629 0 0 1 8.9629 8.9629v262.65a8.9629 8.9629 0 0 1 -8.9629 8.9629h-451.81a8.9629 8.9629 0 0 1 -8.9629 -8.9629v-262.65a8.9629 8.9629 0 0 1 8.9629 -8.9629" fill="inherit" fill-rule="evenodd" transform="translate(-122.4 -250.42)"/></g><g fill-rule="evenodd"><g id="change1_1"><path d="m73.681 283.34h683.46v71.429h-683.46z" fill="inherit" transform="matrix(.6937 0 0 .68949 -35.583 -56.02)"/></g><g id="change2_1"><path d="m328.83-392.17h65.393v73.897h-65.393z" fill="#fff" transform="matrix(.6937 0 .3231 -.59195 -35.583 -46.31)"/></g><g id="change2_2"><path d="m496.28-392.17h65.393v73.897h-65.393z" fill="#fff" transform="matrix(.6937 0 .3231 -.59195 -35.583 -46.31)"/></g><g id="change2_3"><path d="m663.73-392.17h65.393v73.897h-65.393z" fill="#fff" transform="matrix(.6937 0 .3231 -.59195 -35.583 -46.31)"/></g><g id="change2_4"><path d="m831.18-392.17h65.393v73.897h-65.393z" fill="#fff" transform="matrix(.6937 0 .3231 -.59195 -35.583 -46.31)"/></g></g><g id="change1_4"><path d="m-563.07 354.79h474.08v49.253h-474.08z" fill="inherit" fill-rule="evenodd" transform="matrix(-.99244 .12275 .12423 .99225 -122.4 -250.42)"/></g><g id="change2_5"><path d="m328.83-392.17h65.393v73.897h-65.393z" fill="#fff" fill-rule="evenodd" transform="matrix(-.68839 .08514 -.39416 -.54777 552.06 -163.432)"/></g><g id="change2_6"><path d="m496.28-392.17h65.393v73.897h-65.393z" fill="#fff" fill-rule="evenodd" transform="matrix(-.68839 .08514 -.39416 -.54777 552.06 -163.432)"/></g><g id="change2_7"><path d="m663.73-392.17h65.393v73.897h-65.393z" fill="#fff" fill-rule="evenodd" transform="matrix(-.68839 .08514 -.39416 -.54777 552.06 -163.432)"/></g><g id="change2_8"><path d="m831.18-392.17h65.393v73.897h-65.393z" fill="#fff" fill-rule="evenodd" transform="matrix(-.68839 .08514 -.39416 -.54777 552.06 -163.432)"/></g><g id="change2_9"><path d="m125.71 168.08a14.286 14.286 0 1 1 -28.571 0 14.286 14.286 0 1 1 28.571 0z" fill="#fff" fill-rule="evenodd" stroke="#fff" stroke-width="4" transform="matrix(.68839 -.08514 .08566 .68421 -50.502 4.97)"/></g><path d="m137.85 439.07h474.2" fill="none" stroke="#ccc" stroke-width=".692" transform="translate(-122.4 -250.42)"/><g fill="none" stroke="#fff" stroke-width="4"><path d="m104.12 618.35h622.58" transform="matrix(.6937 0 0 .68949 -35.583 -56.01)"/><g><path d="m307.96 713.15v-93.833" transform="matrix(.6937 0 0 .68949 -50 -56.01)"/><path d="m564.43 713.15v-93.833" transform="matrix(.6937 0 0 .68949 -50 -56.01)"/></g><path d="m104.12 524.49h622.58" transform="matrix(.6937 0 0 .68949 -35.583 -56.01)"/><path d="m104.12 430.63h622.58" transform="matrix(.6937 0 0 .68949 -35.583 -56.01)"/></g></g></svg>