<?xml version="1.0" standalone="no"?>
<!DOCTYPE svg PUBLIC "-//W3C//DTD SVG 20010904//EN"
 "http://www.w3.org/TR/2001/REC-SVG-20010904/DTD/svg10.dtd">
<svg version="1.0" xmlns="http://www.w3.org/2000/svg"
 width="768.000000pt" height="82.000000pt" viewBox="0 0 768.000000 82.000000"
 preserveAspectRatio="xMidYMid meet">

<g transform="translate(0.000000,82.000000) scale(0.100000,-0.100000)"
fill="#000000" stroke="none">
<path d="M78 808 c7 -7 12 -19 12 -28 0 -8 9 -21 20 -28 11 -7 20 -20 20 -30
1 -23 21 -48 46 -56 12 -3 26 -18 32 -31 7 -15 20 -25 32 -25 11 0 20 -4 20
-9 0 -5 12 -12 26 -15 29 -8 54 -29 54 -45 0 -6 7 -11 15 -11 8 0 15 -4 15
-10 0 -5 7 -10 15 -10 8 0 15 -7 15 -15 0 -8 -7 -15 -15 -15 -8 0 -15 -7 -15
-15 0 -8 8 -15 18 -15 13 0 23 -13 32 -40 10 -32 18 -40 37 -40 12 0 23 -6 23
-13 0 -7 23 -21 50 -31 l50 -18 0 -79 0 -79 55 0 c47 0 55 -3 55 -19 0 -19 25
-31 68 -31 17 0 22 -6 22 -25 0 -14 -6 -26 -12 -26 -7 -1 -35 -3 -62 -4 -43
-2 -65 -15 -66 -37 0 -5 1442 -8 3205 -8 2130 0 3205 3 3205 10 0 6 -6 10 -14
10 -8 0 -16 6 -19 12 -2 8 -23 13 -53 14 -267 2 -264 2 -264 29 l0 25 128 0
c146 0 172 5 172 31 0 15 7 19 40 19 l40 0 0 85 c0 84 0 85 25 85 20 0 25 5
25 25 0 16 6 25 15 25 8 0 15 7 15 15 0 9 9 15 25 15 14 0 25 5 25 10 0 6 7
10 15 10 8 0 15 5 15 11 0 6 7 18 16 26 10 10 13 25 10 39 -6 21 -3 24 24 24
21 0 40 10 60 30 16 17 34 30 39 30 6 0 37 27 70 60 33 33 65 60 71 60 5 0 10
6 10 14 0 7 7 19 15 26 8 7 15 23 15 36 0 13 8 28 18 33 11 7 -1187 10 -3752
11 -2932 0 -3767 -3 -3758 -12z m6071 -60 c0 -30 -1 -31 -9 -10 -5 12 -14 22
-20 22 -15 0 -13 -163 2 -178 9 -9 5 -12 -20 -12 -30 0 -31 1 -22 26 13 33 13
164 0 164 -5 0 -14 -8 -19 -17 -9 -15 -10 -14 -11 10 0 26 2 27 50 27 50 0 50
0 49 -32z m55 5 c4 -16 12 -46 18 -68 l11 -40 16 65 c14 53 21 66 39 68 12 2
22 -1 22 -7 0 -6 -4 -11 -10 -11 -13 0 -13 -130 0 -164 9 -24 8 -26 -21 -26
-26 0 -29 2 -19 19 5 11 10 44 9 73 l-1 53 -18 -68 c-10 -38 -20 -71 -23 -73
-2 -3 -12 27 -22 66 -9 38 -19 70 -22 70 -13 0 4 -122 18 -131 10 -6 8 -9 -11
-9 l-25 0 0 105 c0 91 2 105 16 105 10 0 20 -11 23 -27z m-845 -110 c5 -21 35
-144 66 -273 68 -288 71 -298 96 -305 42 -14 15 -25 -61 -25 -75 0 -105 11
-60 23 25 6 25 27 2 132 l-18 80 -79 0 -79 0 -19 -88 c-20 -94 -18 -116 13
-124 43 -11 17 -23 -50 -23 -38 0 -70 3 -70 6 0 3 9 13 20 22 16 13 37 82 90
292 38 151 74 285 79 298 7 14 19 22 35 22 21 0 27 -7 35 -37z m-1863 -8 c74
-47 107 -118 112 -244 7 -174 -34 -277 -129 -325 -48 -24 -64 -26 -171 -26
-72 0 -118 4 -118 10 0 6 8 10 18 10 40 0 42 13 42 302 l0 279 -30 6 c-16 3
-30 10 -30 15 0 6 51 8 128 6 123 -3 131 -4 178 -33z m294 29 c0 -3 -9 -13
-19 -22 -19 -17 -19 -20 8 -204 15 -103 30 -190 32 -193 3 -2 18 60 34 138 22
112 27 154 21 200 -5 36 -13 60 -22 64 -33 12 -10 23 51 23 37 0 65 -4 65 -10
0 -5 -6 -10 -14 -10 -8 0 -17 -4 -21 -10 -3 -5 7 -100 22 -211 l27 -202 33
189 c38 225 38 224 13 231 -40 11 -18 23 40 23 63 0 75 -8 38 -25 -20 -9 -26
-34 -72 -307 -41 -246 -53 -298 -66 -298 -13 0 -20 31 -40 167 -13 93 -26 178
-29 191 -4 15 -20 -47 -41 -164 -31 -167 -46 -211 -65 -192 -3 2 -23 128 -45
279 -49 335 -48 329 -66 329 -8 0 -14 5 -14 10 0 6 28 10 65 10 36 0 65 -3 65
-6z m767 -59 c15 -76 15 -75 0 -75 -8 0 -20 18 -27 40 -17 51 -39 70 -89 77
l-41 6 0 -292 0 -291 30 -6 c60 -12 28 -24 -65 -24 -93 0 -125 12 -65 24 l30
6 0 291 0 292 -42 -7 c-53 -9 -63 -17 -84 -72 -9 -25 -23 -44 -32 -44 -15 0
-14 19 9 102 l10 38 177 -2 176 -3 13 -60z m243 55 c0 -5 -9 -10 -20 -10 -11
0 -23 -7 -26 -15 -5 -13 80 -260 97 -278 7 -9 15 11 80 185 25 70 27 79 13 93
-9 8 -20 15 -25 15 -5 0 -9 5 -9 10 0 6 32 10 75 10 79 0 94 -8 46 -26 -25
-10 -36 -30 -92 -170 -62 -157 -63 -161 -67 -270 -3 -93 -1 -114 13 -127 9
-10 25 -17 36 -17 10 0 19 -4 19 -10 0 -6 -40 -10 -100 -10 -60 0 -100 4 -100
10 0 6 10 10 23 10 40 0 47 18 47 119 0 94 -1 100 -66 274 -54 142 -72 181
-91 190 -42 19 -24 27 62 27 50 0 85 -4 85 -10z m960 0 c0 -5 -9 -10 -20 -10
-11 0 -23 -7 -26 -15 -5 -13 80 -260 97 -278 7 -9 15 11 80 185 25 70 27 79
13 93 -9 8 -20 15 -25 15 -5 0 -9 5 -9 10 0 6 32 10 75 10 79 0 94 -8 46 -26
-25 -10 -36 -30 -92 -170 -62 -157 -63 -161 -67 -270 -3 -93 -1 -114 13 -127
9 -10 25 -17 36 -17 10 0 19 -4 19 -10 0 -6 -40 -10 -100 -10 -60 0 -100 4
-100 10 0 6 10 10 23 10 40 0 47 18 47 119 0 94 -1 100 -66 274 -54 142 -72
181 -91 190 -42 19 -24 27 62 27 50 0 85 -4 85 -10z m-4850 -560 c0 -47 -2
-50 -25 -50 -23 0 -25 3 -25 50 0 47 2 50 25 50 23 0 25 -3 25 -50z"/>
<path d="M5272 452 c-18 -76 -32 -140 -32 -144 0 -5 32 -8 71 -8 62 0 70 2 65
18 -3 9 -17 69 -32 132 -14 63 -29 120 -33 127 -3 6 -21 -50 -39 -125z"/>
<path d="M3328 640 c-16 -10 -18 -35 -18 -285 0 -264 1 -275 20 -285 25 -14
87 2 124 31 15 11 37 40 49 62 20 38 22 56 22 197 0 147 -1 157 -25 199 -14
25 -38 53 -55 62 -40 23 -96 32 -117 19z"/>
</g>
</svg>
