<?xml version="1.0" encoding="UTF-8" standalone="no"?><!-- Generator: Adobe Illustrator 22.1.0, SVG Export Plug-In . SVG Version: 6.00 Build 0)  --><svg xmlns="http://www.w3.org/2000/svg" enable-background="new 0 0 1000 300" fill="#000000" id="Layer_2" version="1.1" viewBox="0 0 1000 300" x="0px" xml:space="preserve" y="0px">
<g>
	<g id="change1_1"><path d="m930.3 278.1h-860.6c-38.5 0-69.7-31.2-69.7-69.6v-117c0-38.5 31.2-69.7 69.7-69.7h860.7c38.5 0 69.7 31.2 69.7 69.7v116.9c-0.1 38.5-31.3 69.7-69.8 69.7z" fill="#000000"/></g>
	<g fill="#ffffff" id="change2_1">
		<path d="m241.5 96.4c0 7.4-0.6 99.7-1.1 108.2-0.6 6.8-7.4 14.2-17 14.2-3.1 0-6.3-0.7-9.4-2.4-9.6-5-53.6-63.5-64.6-78.1 0.2 13.9 0.4 59.4 0.2 66.2-0.4 8.1-8 13.1-15 13.5-6.8 0.4-14.2-4.4-15.2-15.5-0.9-11.1-1.3-96.8-1.1-102.9 0.6-9.4 6.1-15.7 15.2-17 0.7 0 1.7-0.2 2.6-0.2 5 0 12.4 1.7 20 9.8 6.1 6.7 45.1 60.9 55.5 75.1v-70.5c0-9.6 7.8-15.4 15-15.4h0.4c6.9 0.4 14.5 6.5 14.5 15z" fill="inherit"/>
		<path d="m376.3 205.2c0 5.7-5 14.4-12.4 14.8-6.8 0.4-59.6 0.9-65.7 0.9-7.6 0-16.6-2.8-17.2-15.9-0.6-12 0-56.2 0.4-82.7 0.2-9.6 0.2-17.2 0.2-19.8 0-12.4 5.4-18.3 17-18.7h10.2c18.3 0 49.8 0.4 57 0.7 9.1 0.2 13.1 8.1 13.1 15.4 0 8.7-5.5 14.1-14.8 14.4-4.1 0.2-12.2 0.2-23.9 0.2h-19.6-3.3c-2.2 0-3.5 1.5-3.9 4.6-0.2 0.7-0.4 8.1-0.4 17.6 15.2 0.4 42.5 1.1 47.7 1.1 2.8 0 5.2 1.1 7.2 3.1 2.6 3 4.3 7.4 4.1 11.7-0.4 6.1-5.5 13.1-12.8 13.3-1.3 0.2-4.1 0.2-8.3 0.2-10.5 0-27.7-0.2-38.1-0.4-0.2 10-0.2 18.1-0.2 19.8 0 3.1 3.5 4.3 6.7 4.3 8.5 0 37.2 0 45 0.4 8.3 0.4 12 9.1 12 15z" fill="inherit"/>
		<path d="m515.6 192.1c6.1 8.5 8.5 15.2-0.4 23.3-8.3 7.6-18.5 1.8-25.2-5.7-3-3.5-14.4-17.6-27.7-34.4-15.2 17.8-27.9 32.7-30.5 35.1-7.4 7.6-13.7 11.3-23.3 3.7-9.1-7.2-5-18.3 1.5-26.3 3.1-3.9 16.6-19.8 32-38.1-15.7-20-29.8-38.1-32-41.8-5.4-8.7-1.5-17.4 3.5-21.3 5-4.1 15.4-5.2 21.6 3.1 2.2 3.3 14.1 18.1 27.7 35.5 16.3-19.1 30.7-35.7 33.9-38.5 7.8-6.8 17.2-4.4 22-0.2 5 4.4 7.8 14.6 0.4 22.4-3.1 3.3-18.9 21.6-36.1 41.8 16.2 20.3 30.4 38.2 32.6 41.4z" fill="inherit"/>
		<path d="m665.5 92.9c0 5.5-5 13.3-14.1 12.9-3.5-0.2-16.1 0-31.1 0.2-0.4 14.6 0 91.2-0.4 99.2-0.4 9.8-2.4 16.3-13.9 16.8-10.5 0.7-14.6-9.4-15-18.9-0.4-10.4-0.7-78.8 0.2-96.8-15.5 0.4-28.7 0.6-31.6 0.4-9.2-0.4-15.5-2.4-17-12.9-1.3-10.5 8.9-15.4 17.8-15.7 10.4-0.4 83.6-0.4 92.3 0.7 8.9 1 12.8 8.4 12.8 14.1z" fill="inherit"/>
	</g>
	<g id="change2_2">
		<path d="m748.6 191.8h74.3c5.1 0 9.2 4.1 9.2 9.2v14.5c0 8 9.5 12.2 15.5 6.8l70.6-64.6c4-3.6 4-9.9 0.1-13.5l-70.6-66.4c-5.9-5.5-15.6-1.4-15.6 6.7v14.1c0 5.1-4.1 9.2-9.2 9.2h-74.3c-5.1 0-9.2 4.1-9.2 9.2v65.4c-0.1 5.2 4.1 9.4 9.2 9.4z" fill="#ffffff"/>
	</g>
</g>
</svg>