<?xml version="1.0" encoding="UTF-8"?><svg xmlns="http://www.w3.org/2000/svg" xmlns:xlink="http://www.w3.org/1999/xlink" height="169.2" preserveAspectRatio="xMidYMid meet" version="1.0" viewBox="58.0 171.1 398.4 169.2" width="398.4" zoomAndPan="magnify"><g id="change1_1"><path d="M416.38239,172.50771c-7.6174,2.26011-12.30502,8.62189-10.63087,14.48142,1.67415,6.02695,8.20335,8.28706,13.97918,4.77134,4.93875-3.01348,9.29155-1.50674,8.20335,2.92977-1.25561,4.85504-9.8775,10.71458-21.51287,14.56513-9.71009,3.18089-12.97469,9.62638-8.53818,16.57411,2.26011,3.43201,6.11066,4.43651,23.0196,5.69212,26.03308,2.00898,25.196,2.00898,28.79543-1.59045,6.69661-6.69661,.83708-15.56962-10.37975-15.56962h-2.84606l3.01348-3.51572c6.19437-7.19886,8.7893-17.24378,6.36178-24.61005-1.42303-4.3528-7.11515-10.21233-12.13761-12.55615-4.3528-2.09269-12.55615-2.59494-17.32748-1.17191Zm-303.77059,23.1574c-9.65335,.49931-23.13475,2.08046-28.46074,3.24552-10.90163,2.49656-12.566,6.82392-17.30945,44.85479-7.6561,61.9978-8.82116,78.55829-5.90852,84.8829,1.99724,4.41058,6.40783,8.23863,11.90025,10.06944,3.74483,1.3315,7.07357,1.58115,22.469,1.58115h18.05842l2.49656-2.41334c3.1623-2.99587,3.82805-6.15817,2.2469-9.98622-1.99724-4.74346-4.74346-5.49242-20.2221-5.57564-7.24001,0-14.64646-.24966-16.47727-.58253l-3.32874-.66575,.16644-8.65473c.08322-8.32185,4.07771-46.18628,4.90989-47.601,.24966-.33287,4.24414-.66575,8.90438-.66575,15.7283,0,23.71728-2.2469,26.71315-7.40645,1.49793-2.57977,1.49793-3.07909,.41609-6.24139-.83219-2.49656-1.99724-3.82805-4.24414-5.07633-2.82943-1.49793-3.5784-1.49793-9.98622-.58253-3.82805,.58253-9.903,.99862-13.4814,.99862h-6.49105l.41609-2.74621c.24966-1.41471,1.16506-7.57289,1.91403-13.64784,.74897-5.99173,1.66437-11.40094,1.99724-11.90025,.9154-1.49793,6.32461-2.33012,23.30119-3.32874,19.80601-1.16506,20.63819-1.3315,23.46762-4.16093,4.16093-4.16093,2.82943-10.90163-2.66299-13.73106-2.33012-1.24828-7.90576-1.41471-20.80463-.66575Zm253.546,26.10365c-9.20784,3.43201-15.98816,9.8775-21.42916,20.50837-8.20335,15.65333-11.63536,33.31564-9.12413,45.78808,2.59494,12.38873,9.20784,22.18253,17.99714,26.53532,5.69212,2.76235,14.06289,2.67864,19.83871-.33483,6.86403-3.59943,14.31401-12.22132,15.82075-18.49939,1.0882-4.68763-3.68314-10.63087-8.7056-10.63087-3.09718,0-6.44549,2.34381-9.45896,6.6129-4.01797,5.5247-6.69661,7.28257-9.29155,6.11066-5.35729-2.42752-9.45896-13.1421-8.45447-21.8477,1.42303-12.30502,7.28257-27.03757,13.05839-32.8134,3.09718-3.09718,5.77583-4.26909,5.77583-2.42752,0,1.0882,4.52021,3.34831,6.69661,3.34831,2.92977,0,6.6129-2.34381,8.03593-5.18987,2.67864-5.18987-.50225-13.1421-6.5292-16.23928-3.51572-1.84157-10.46346-2.26011-14.2303-.92078Zm-100.03064,2.67864c-4.10167,2.09269-8.62189,6.27807-12.47244,11.63536l-1.67415,2.34381-2.51123-4.85504c-5.60841-11.38424-15.3185-11.71907-26.36791-.83708l-4.60392,4.43651-2.34381-1.92528c-4.18538-3.68314-11.21683-2.00898-13.97918,3.18089-1.25561,2.34381-2.26011,18.66681-2.51123,40.09596-.25112,15.90445-.08371,18.33198,1.17191,20.25725,3.43201,5.18987,10.04492,5.94324,14.2303,1.59045,1.92528-2.00898,2.34381-3.76684,3.93426-14.14659,1.84157-12.63986,4.01797-20.92691,7.11515-27.03757,2.34381-4.52021,6.86403-10.88199,7.78481-10.88199,.33483,0,1.42303,4.93875,2.42752,10.9657,1.59045,9.8775,2.00898,11.21683,4.18538,13.47693,3.2646,3.2646,8.03593,3.93426,11.71907,1.59045,2.09269-1.33932,4.01797-4.26909,8.20335-12.80727,5.35729-10.88199,8.28706-15.73704,9.04043-14.89996,.16742,.25112-.16742,10.54716-.83708,23.0196-1.42303,27.28869-1.17191,37.58473,.83708,40.68192,3.09718,4.68763,10.21233,5.18987,14.06289,1.0882,1.75786-1.92528,2.00898-3.01348,2.26011-10.21233,.16742-4.43651,.75337-18.66681,1.33932-31.55778,1.59045-34.48755,.41854-41.26787-7.86852-45.45325-4.77134-2.42752-7.86852-2.34381-13.1421,.25112Zm-111.41488,28.04206c-3.18089,.33483-6.19437,1.25561-7.53369,2.26011-5.10617,3.76684-5.5247,10.12863-.92078,13.97918,2.84606,2.42752,4.43651,2.51123,20.34096,1.42303,8.87301-.58595,9.20784-.66966,11.46795-3.2646,4.52021-5.02246,2.34381-12.55615-4.10167-14.39772-3.43201-.92078-11.13312-.92078-19.25276,0Zm1.92528,25.02859c-7.11515,.66966-10.12863,2.51123-11.38424,6.78032-.75337,2.59494-.66966,3.59943,.50225,6.11066,2.51123,5.35729,7.7011,6.5292,21.09433,4.77134,7.7011-1.00449,10.9657-2.67864,12.47244-6.44549,1.59045-3.59943,.41854-7.78481-2.76235-10.29604-2.34381-1.84157-7.53369-2.00898-19.92242-.92078Zm151.42714,13.39322c-7.44998,4.68763-3.93426,15.98816,4.93875,15.98816,5.77583,0,10.29604-6.44549,8.11964-11.63536-2.1764-5.441-8.20335-7.44998-13.05839-4.3528Z"/></g></svg>